<mxfile host="app.diagrams.net" modified="2022-06-26T12:53:50.772Z" agent="5.0 (Windows NT 10.0; WOW64) AppleWebKit/537.36 (KHTML, like Gecko) Chrome/102.0.0.0 Safari/537.36" etag="cRHDsiaNy4ER53w6pjyw" version="20.0.3" type="github">
  <diagram id="prtHgNgQTEPvFCAcTncT" name="Page-1">
    <mxGraphModel dx="3555" dy="1905" grid="1" gridSize="23" guides="1" tooltips="1" connect="1" arrows="1" fold="1" page="1" pageScale="1" pageWidth="827" pageHeight="1169" math="0" shadow="0">
      <root>
        <mxCell id="0" />
        <mxCell id="1" parent="0" />
        <mxCell id="RVmaEzu3Vd1OIIIUfMRE-1" value="" style="rounded=0;whiteSpace=wrap;html=1;fillColor=#f8cecc;strokeColor=#b85450;" vertex="1" parent="1">
          <mxGeometry x="1334" width="320" height="207" as="geometry" />
        </mxCell>
        <mxCell id="RVmaEzu3Vd1OIIIUfMRE-3" value="" style="rounded=0;whiteSpace=wrap;html=1;" vertex="1" parent="1">
          <mxGeometry x="1520" y="147" width="120" height="60" as="geometry" />
        </mxCell>
        <mxCell id="RVmaEzu3Vd1OIIIUfMRE-4" value="" style="endArrow=none;dashed=1;html=1;dashPattern=1 3;strokeWidth=2;rounded=0;entryX=0;entryY=0.5;entryDx=0;entryDy=0;exitX=0.5;exitY=1;exitDx=0;exitDy=0;" edge="1" parent="1" source="RVmaEzu3Vd1OIIIUfMRE-1" target="RVmaEzu3Vd1OIIIUfMRE-3">
          <mxGeometry width="50" height="50" relative="1" as="geometry">
            <mxPoint x="1450" y="334" as="sourcePoint" />
            <mxPoint x="1460" y="184" as="targetPoint" />
            <Array as="points">
              <mxPoint x="1495" y="177" />
            </Array>
          </mxGeometry>
        </mxCell>
        <mxCell id="RVmaEzu3Vd1OIIIUfMRE-5" value="" style="endArrow=none;html=1;rounded=0;entryX=0.5;entryY=1;entryDx=0;entryDy=0;" edge="1" parent="1" target="RVmaEzu3Vd1OIIIUfMRE-1">
          <mxGeometry width="50" height="50" relative="1" as="geometry">
            <mxPoint x="1380" y="299" as="sourcePoint" />
            <mxPoint x="1460" y="234" as="targetPoint" />
            <Array as="points">
              <mxPoint x="1494" y="299" />
            </Array>
          </mxGeometry>
        </mxCell>
        <mxCell id="RVmaEzu3Vd1OIIIUfMRE-6" value="Text" style="text;html=1;strokeColor=none;fillColor=none;align=center;verticalAlign=middle;whiteSpace=wrap;rounded=0;" vertex="1" parent="1">
          <mxGeometry x="1550" y="162" width="60" height="30" as="geometry" />
        </mxCell>
        <mxCell id="RVmaEzu3Vd1OIIIUfMRE-10" value="" style="whiteSpace=wrap;html=1;aspect=fixed;" vertex="1" parent="1">
          <mxGeometry x="1035" y="874" width="207" height="207" as="geometry" />
        </mxCell>
        <mxCell id="RVmaEzu3Vd1OIIIUfMRE-11" value="" style="whiteSpace=wrap;html=1;aspect=fixed;" vertex="1" parent="1">
          <mxGeometry x="1034" y="1081" width="207" height="207" as="geometry" />
        </mxCell>
        <mxCell id="RVmaEzu3Vd1OIIIUfMRE-12" value="" style="whiteSpace=wrap;html=1;aspect=fixed;" vertex="1" parent="1">
          <mxGeometry x="1035" y="667" width="207" height="207" as="geometry" />
        </mxCell>
        <mxCell id="RVmaEzu3Vd1OIIIUfMRE-14" value="" style="whiteSpace=wrap;html=1;aspect=fixed;" vertex="1" parent="1">
          <mxGeometry x="1034" y="1288" width="207" height="207" as="geometry" />
        </mxCell>
        <mxCell id="RVmaEzu3Vd1OIIIUfMRE-15" value="" style="whiteSpace=wrap;html=1;aspect=fixed;" vertex="1" parent="1">
          <mxGeometry x="827" y="1081" width="207" height="207" as="geometry" />
        </mxCell>
        <mxCell id="RVmaEzu3Vd1OIIIUfMRE-16" value="" style="whiteSpace=wrap;html=1;aspect=fixed;gradientColor=#ffffff;" vertex="1" parent="1">
          <mxGeometry x="1242" y="1081" width="207" height="207" as="geometry" />
        </mxCell>
        <mxCell id="RVmaEzu3Vd1OIIIUfMRE-17" value="" style="whiteSpace=wrap;html=1;aspect=fixed;" vertex="1" parent="1">
          <mxGeometry x="1034" y="1547" width="207" height="207" as="geometry" />
        </mxCell>
        <mxCell id="RVmaEzu3Vd1OIIIUfMRE-18" value="" style="rounded=1;whiteSpace=wrap;html=1;gradientColor=#ffffff;" vertex="1" parent="1">
          <mxGeometry x="1078.5" y="1587" width="120" height="60" as="geometry" />
        </mxCell>
        <mxCell id="RVmaEzu3Vd1OIIIUfMRE-19" value="Text" style="text;html=1;strokeColor=none;fillColor=none;align=center;verticalAlign=middle;whiteSpace=wrap;rounded=0;" vertex="1" parent="1">
          <mxGeometry x="483" y="1403" width="60" height="30" as="geometry" />
        </mxCell>
        <mxCell id="RVmaEzu3Vd1OIIIUfMRE-20" value="" style="ellipse;whiteSpace=wrap;html=1;aspect=fixed;gradientColor=#ffffff;" vertex="1" parent="1">
          <mxGeometry x="1219" y="1547" width="22" height="22" as="geometry" />
        </mxCell>
        <mxCell id="RVmaEzu3Vd1OIIIUfMRE-21" value="" style="whiteSpace=wrap;html=1;aspect=fixed;gradientColor=#ffffff;" vertex="1" parent="1">
          <mxGeometry x="1044.5" y="1679" width="34" height="34" as="geometry" />
        </mxCell>
        <mxCell id="RVmaEzu3Vd1OIIIUfMRE-22" value="" style="ellipse;whiteSpace=wrap;html=1;aspect=fixed;gradientColor=#ffffff;" vertex="1" parent="1">
          <mxGeometry x="1050.5" y="1685" width="22" height="22" as="geometry" />
        </mxCell>
        <mxCell id="RVmaEzu3Vd1OIIIUfMRE-23" value="" style="whiteSpace=wrap;html=1;aspect=fixed;gradientColor=#ffffff;" vertex="1" parent="1">
          <mxGeometry x="1120.5" y="1679" width="34" height="34" as="geometry" />
        </mxCell>
        <mxCell id="RVmaEzu3Vd1OIIIUfMRE-24" value="" style="ellipse;whiteSpace=wrap;html=1;aspect=fixed;gradientColor=#ffffff;" vertex="1" parent="1">
          <mxGeometry x="1126.5" y="1685" width="22" height="22" as="geometry" />
        </mxCell>
        <mxCell id="RVmaEzu3Vd1OIIIUfMRE-25" value="" style="whiteSpace=wrap;html=1;aspect=fixed;gradientColor=#ffffff;" vertex="1" parent="1">
          <mxGeometry x="1198.5" y="1679" width="34" height="34" as="geometry" />
        </mxCell>
        <mxCell id="RVmaEzu3Vd1OIIIUfMRE-26" value="" style="ellipse;whiteSpace=wrap;html=1;aspect=fixed;gradientColor=#ffffff;" vertex="1" parent="1">
          <mxGeometry x="1204.5" y="1685" width="22" height="22" as="geometry" />
        </mxCell>
      </root>
    </mxGraphModel>
  </diagram>
</mxfile>
